<?xml version="1.0" encoding="utf-8"?>
<!-- Generator: Adobe Illustrator 25.2.0, SVG Export Plug-In . SVG Version: 6.00 Build 0)  -->
<svg version="1.1" id="Layer_1" xmlns="http://www.w3.org/2000/svg" xmlns:xlink="http://www.w3.org/1999/xlink" x="0px" y="0px" width="100%" height="100%"
	 viewBox="0 0 2260.8 629.4" style="enable-background:new 0 0 2260.8 629.4;" xml:space="preserve">
<style type="text/css">
	.st0{fill:#F05423;}
</style>
<g>
	<g>
		<path class="st0" d="M1329.1,402.7c126.7,0,253.5,0,381.1,0c0-21,0-41.9,0-63.9c-102.3,0-204.3,0-307,0c0-20.5,0-39.8,0-60.3
			c79.1,0,158.2,0,237.8,0c0-22,0-42.9,0-64.9c-79.4,0-158.5,0-237.9,0c0-20.4,0-39.8,0-60.2c102.6,0,204.6,0,307.2,0
			c0-21.9,0-42.9,0-64.8c-127.5,0-253.9,0-381.2,0C1329.1,193.3,1329.1,297.6,1329.1,402.7z"/>
		<path class="st0" d="M903.9,88.5v65.3c51.5-0.2,103.1-0.1,154.5-0.1c2.1,0,4.2,0.3,7.3,0.5v248.9h0.1h73.5h0.1V154.2
			c3.1-0.2,5.2-0.5,7.3-0.5c51.5,0,103.1-0.1,154.5,0.1V88.5c-66.3-0.3-132.5,0-198.8,0.1C1036.4,88.5,970.2,88.2,903.9,88.5z"/>
		<path class="st0" d="M208.2,88.4L94.1,402.7h78.8l101.6-280c4.2-11.6,20.6-11.6,24.8,0l101.6,280h78.8L365.7,88.4H208.2z"/>
		<path class="st0" d="M685.8,277.1h105.4c52.1,0,94.4-42.3,94.4-94.4s-42.3-94.4-94.4-94.4H506v314.3h74V152.9h201.9
			c16.4,0,29.8,13.3,29.8,29.8c0,16.4-13.3,29.8-29.8,29.8H680.4c-39,0-70.5,31.6-70.5,70.5c0,32.6,22.3,60.9,54,68.6l194.4,50.4
			l15.2-62.8l-189.1-49.1C676.7,288.2,678,277.1,685.8,277.1z"/>
		<path class="st0" d="M2092.7,88.3l0.1,280c-4.2,11.6-20.6,11.6-24.8,0l-55.9-95.3L1903.7,88.3h-0.1h-78.6h-0.1h-0.1h-78.6v314.3
			h74l-0.1-280c4.2-11.6,20.6-11.6,24.8,0l54.3,92.5l109.9,187.5h0.1h78.6h0.1h0.1h78.6V88.3H2092.7z"/>
	</g>
	<g>
		<path class="st0" d="M1329.1,511.9l14-9.4c7.2,15.7,21,24.3,41.1,24.3s32.5-7.6,32.5-18.6c0-9-6.9-13.9-20.5-14.7l-26.2-1.6
			c-22.2-1.3-35.9-11-35.9-25.3c0-19.2,17-29.9,47.4-29.9c22.5,0,38.8,6.4,49.5,21.5l-15.3,9.3c-6.2-10.6-17.9-16.5-34.2-16.5
			c-18.5,0-30.2,5.9-30.2,14c0,6.9,5.7,10,19.5,11l26.8,1.9c24.2,1.7,36.4,11.9,36.4,30.1c0,19.9-19,33.2-50.7,33.2
			C1355.9,541.1,1339,530.9,1329.1,511.9z"/>
		<path class="st0" d="M1583.1,438.8c26,0,37.5,10.6,37.5,29.5c0,16.5-11.3,28.5-37.4,28.5h-43.5v42.2h-17.2V438.8H1583.1z
			 M1539.8,454.5V481h48.1c10.7,0,15.6-6.4,15.6-12.9c0-6.9-5-13.6-15.6-13.6H1539.8z"/>
		<path class="st0" d="M1757.9,438.8l53.2,100.2h-20l-13.3-25.3h-62.3l-13.3,25.3h-19.3l53.2-100.2H1757.9z M1769.6,497.9
			l-22.9-43.7l-22.9,43.7H1769.6z"/>
		<path class="st0" d="M1882.6,488.8c0-28.5,23.3-52.2,58.4-52.2c23.9,0,42.4,11.3,51.7,27.1l-14.5,9.2
			c-6.3-13.3-19.3-20.5-37.2-20.5c-25.8,0-41.2,15.6-41.2,36.5c0,20.9,15.5,36.5,41.2,36.5c19.9,0,33.6-8.9,38.9-22.9l11.2,14
			c-9.7,14.3-27.5,24.6-50.1,24.6C1905.9,541.1,1882.6,517.3,1882.6,488.8z"/>
		<path class="st0" d="M2166.7,438.8l-2.9,15.7h-67.4v20.3h56v15.7h-56v32.6h67.4l2.9,15.7h-87.5V438.8H2166.7z"/>
	</g>
</g>
</svg>
